<svg width="48" height="48" viewBox="0 0 48 48" fill="none" xmlns="http://www.w3.org/2000/svg">
<path d="M24 1C11.299 1 1 11.298 1 24C1 36.702 11.299 47 24 47C36.701 47 47 36.702 47 24C47 11.298 36.701 1 24 1Z" stroke="#BC9EEE" stroke-width="2" stroke-miterlimit="10" stroke-linecap="round" stroke-linejoin="round"/>
<path d="M17.71 33.719L13.801 21.657L24.026 14.203L34.253 21.657L30.348 33.719H17.71Z" stroke="#BC9EEE" stroke-width="2" stroke-miterlimit="10" stroke-linecap="round" stroke-linejoin="round"/>
<path d="M32.738 2.78799L24.026 6.50499L15.316 2.78799" stroke="#BC9EEE" stroke-width="2" stroke-miterlimit="10" stroke-linecap="round" stroke-linejoin="round"/>
<path d="M6.646 9.10599L7.483 18.569L1.263 25.729" stroke="#BC9EEE" stroke-width="2" stroke-miterlimit="10" stroke-linecap="round" stroke-linejoin="round"/>
<path d="M4.576 35.957L13.803 38.082L18.672 46.228" stroke="#BC9EEE" stroke-width="2" stroke-miterlimit="10" stroke-linecap="round" stroke-linejoin="round"/>
<path d="M29.388 46.228L34.253 38.078L43.477 35.953" stroke="#BC9EEE" stroke-width="2" stroke-miterlimit="10" stroke-linecap="round" stroke-linejoin="round"/>
<path d="M46.793 25.727L40.568 18.563L41.404 9.10599" stroke="#BC9EEE" stroke-width="2" stroke-miterlimit="10" stroke-linecap="round" stroke-linejoin="round"/>
<path d="M24.026 6.505V14.203" stroke="#BC9EEE" stroke-width="2" stroke-miterlimit="10" stroke-linecap="round" stroke-linejoin="round"/>
<path d="M34.253 21.956L40.568 18.563" stroke="#BC9EEE" stroke-width="2" stroke-miterlimit="10" stroke-linecap="round" stroke-linejoin="round"/>
<path d="M30.348 33.719L34.253 38.078" stroke="#BC9EEE" stroke-width="2" stroke-miterlimit="10" stroke-linecap="round" stroke-linejoin="round"/>
<path d="M17.71 33.719L13.803 38.082" stroke="#BC9EEE" stroke-width="2" stroke-miterlimit="10" stroke-linecap="round" stroke-linejoin="round"/>
<path d="M7.483 18.569L13.801 21.657" stroke="#BC9EEE" stroke-width="2" stroke-miterlimit="10" stroke-linecap="round" stroke-linejoin="round"/>
</svg>
